<svg xmlns="http://www.w3.org/2000/svg" xmlns:xlink="http://www.w3.org/1999/xlink" viewBox="0 0 500 500"><defs><linearGradient id="a" x1="12%" y1="100%" x2="88%" y2="0%"><stop offset="0%" stop-color="#2c3e50"/><stop offset="100%"/></linearGradient><linearGradient y2="0%" x2="88%" y1="100%" x1="12%" id="b"><stop offset="0%" stop-color="#ff3863"/><stop offset="50%" stop-color="#ff053b"/><stop offset="100%" stop-color="#d1002d"/></linearGradient><linearGradient gradientTransform="matrix(1.04815 0 0 1.03713 -12.916 -11.514)" gradientUnits="userSpaceOnUse" y2="252.35" x2="483.071" y1="252.35" x1="19.001" id="d" xlink:href="#a"/><linearGradient gradientTransform="scale(.99587)" gradientUnits="userSpaceOnUse" y2="251.036" x2="502.072" y1="251.036" x1="0" id="c" xlink:href="#b"/><linearGradient gradientUnits="userSpaceOnUse" y2="106.199" x2="375.604" y1="106.199" x1="173.148" id="e" xlink:href="#b"/></defs><circle r="250" cy="250" cx="250" opacity=".999" fill="url(#c)"/><circle r="243.207" cx="250.207" cy="250.207" opacity=".999" fill="url(#d)"/><g fill="#ff3a65" fill-rule="evenodd"><path d="M238.303 413.602c18.737-24.987 32.134-46.331 40.185-64.034 8.056-17.787 12.29-32.524 12.699-44.22a125.02 125.02 0 00-25.951 15.863c-2.63 20.34-7.536 40.446-14.73 60.317-7.234 19.862-11.298 30.553-12.203 32.074M219.257 174.511c12.078-12.812 23.197-20.18 33.343-22.105-21.405-8.57-40.392-7.293-56.953 3.849-16.599 11.132-29.668 23.907-39.203 38.324-9.491 14.418-14.34 22.303-14.543 23.664 18.656-18.501 34.33-30.713 47.028-36.645 12.699-6.007 22.807-8.363 30.328-7.087M345.553 95.337c-.207-.479-1.93-.084-5.176 1.202-3.25 1.201-6.824 5.97-10.73 14.295.251 0 2.283 2.487 6.107 7.453 3.78 5.04 7.743 12.409 11.894 22.105-6.327 13.779-16.353 26.591-30.077 38.446-13.73 11.856-28.97 8.054-45.738-11.413-5.466-7.125-10.58-11.452-15.347-12.972a46.048 46.048 0 00-4.748 2.158c-9.284 4.89-17.032 11.377-23.235 19.468a110.266 110.266 0 00-7.03 9.968c-6.655 9.771-14.876 30.835-24.656 63.199-11.133 33.322-23.46 51.344-36.983 54.066-13.517 2.797-20.894 3.125-22.127.957.082.723 3.207 4.524 9.37 11.414 6.165 6.974 14.977 12.822 26.443 17.543-18.617 24.987-36.242 42.051-52.884 51.184-16.642 9.133-25.541 13.45-26.692 12.972 23.957 1.361 43.927-2.478 59.914-11.536 15.983-9.048 28.58-19.824 37.783-32.317 2.465-5.688 5.282-11.649 8.446-17.9 12.41-26.517 30.183-49.457 53.317-68.84a92.184 92.184 0 0111.832-7.697c-9.284-3.52-14.403-5.078-15.347-4.684 2.509-17.777 6.862-30.111 13.07-37 6.163-6.975 9.635-10.298 10.415-9.979 22.435 10.973 39.713 7.49 51.839-10.447 12.164-17.946 20.153-35.443 23.976-52.507 3.987 10.419 6.29 23.072 6.906 37.968.409.403 2.547-.085 6.409-1.446 3.819-1.36 6.718-6.082 8.692-14.173-.616.084-4.006-5.763-10.17-17.543-6.126-11.77-11.283-29.755-15.473-53.944" fill="#fff"/><path d="M231.951 120.089c.785 0 1.483-.366 2.1-1.08.698.16 1.372.235 2.032.235 5.22-.394 9.038-2.637 11.465-6.73 2.423-4.083 3.925-7.65 4.498-10.69l14.548-3.605 4.748 15.384c-2.634 8.964-3.125 18.698-1.483 29.192.534 2.966 1.232 5.688 2.1 8.166 0 .084.018.16.057.244 5.302 14.014 12.39 18.745 21.265 14.173 10.358-8.889 14.24-24.104 11.654-45.655-2.302-11.77-6.414-19.42-12.328-22.94l-3.144-18.388 12.635-25.588c.203-.403.246-.882.12-1.445-.163-.479-.39-.676-.673-.601l-28.296 11.893c-.082.084-.164.16-.246.244l-28.353 38.324c-.203.404-.265.883-.183 1.446.081.563.264.835.553.835h.126l4.68-1.201c-1.15 7.537-6.14 11.94-14.976 13.216a.476.476 0 01-.063-.235c.044-2.009-1.887-3.886-5.793-5.65-.823.084-1.685.366-2.59.844-.448.235-.737.836-.862 1.803-.12.882 0 1.642.37 2.28.742 2.16 2.755 4.008 6.04 5.529" fill="#fff"/><g fill="url(#e)" transform="matrix(1.23277 0 0 2.40292 -35.742 28.055)"><path d="M364.852 53.8c.23.333.265 3.415.097 9.25-.164 5.868-1.949 12.368-5.347 19.5-2.301 7.567-7.887 13.868-16.75 18.9-8.868 5-22.684 6.902-41.454 5.698-27.597-1.332-49.933 2.934-67 12.801-17.097 9.867-29.582 20.117-37.449 30.75-7.867 10.602-11.765 16.367-11.699 17.301 0-.965 4.832-6.617 14.5-16.95 9.7-10.366 24.516-20.034 44.45-29 6.468-2.667 13.484-4.866 21.05-6.6 12.398-2.966 26.332-4.098 41.8-3.4 24.368.598 40.5-3.816 48.4-13.25 7.866-9.433 11.566-19.085 11.1-28.948-.468-9.903-1.034-15.25-1.698-16.051"/><path d="M294.75 97.648c23.633 2.704 39.95.036 48.95-8 9-8.03 13.948-16.632 14.85-25.796.934-9.204 1.134-14.204.598-15 .036.03.235.699.602 2-.668-4.137-1.066-6.286-1.2-6.454.532.801.333 5.786-.6 14.954-.934 9.199-5.9 17.816-14.9 25.847-8.968 8-25.284 10.668-48.948 8-8.704-1.234-16.918-1.633-24.653-1.199-.566.035-1.117.066-1.648.102-8.469.597-16.352 1.949-23.653 4.046-3.332.934-6.546 2-9.648 3.204C215.766 107.449 201.367 117 191.3 128c-2.566 2.602-4.85 5.082-6.85 7.45-7.567 9.6-11.333 14.765-11.302 15.5 2.77-4.634 9.118-11.782 19.051-21.45 9.934-9.7 23.45-18.148 40.551-25.352 17.102-7.199 37.766-9.363 62-6.5"/><path d="M261.45 102.8c-.466-.265-5.485.782-15.052 3.15-9.566 2.366-20.796 7.652-33.699 15.85-12.898 8.165-24.597 20.833-35.097 38-.137.235-.27.466-.403.7 0-.035.133-.25.403-.648 1.699-3.903 9.433-12.454 23.199-25.653 13.8-13.164 34.015-23.633 60.648-31.398M366.55 50.95c4.7 9 6.134 17.85 4.302 26.55-1.836 8.734-4.5 16.016-8 21.852-3.536 5.796-5.5 8.816-5.903 9.046 11.367-12.632 17.485-23.214 18.352-31.75.898-8.53-.2-14.949-3.301-19.25-3.102-4.296-4.918-6.449-5.45-6.449"/></g></g><ellipse ry="92.66" rx="90.031" cy="313.466" cx="623.647" opacity=".999" fill="none"/><ellipse ry="139.976" rx="122.889" cy="394.955" cx="688.049" opacity=".999" fill="none"/></svg>